<?xml version="1.0" standalone="no"?>
<!DOCTYPE svg PUBLIC "-//W3C//DTD SVG 20010904//EN"
 "http://www.w3.org/TR/2001/REC-SVG-20010904/DTD/svg10.dtd">
<svg version="1.0" xmlns="http://www.w3.org/2000/svg"
 width="320.000000pt" height="320.000000pt" viewBox="0 0 320.000000 320.000000"
 preserveAspectRatio="xMidYMid meet">
<metadata>
Created by potrace 1.14, written by Peter Selinger 2001-2017
</metadata>
<g transform="translate(0.000000,320.000000) scale(0.100000,-0.100000)"
fill="#000000" stroke="none">
<path d="M1864 1815 c-9 -23 3 -45 24 -45 28 0 43 20 31 42 -12 22 -47 24 -55
3z"/>
<path d="M233 1715 c-65 -28 -85 -130 -35 -185 34 -39 98 -51 136 -26 33 21
36 20 36 -7 0 -53 -87 -81 -129 -43 -16 15 -19 15 -37 -5 -18 -20 -18 -21 1
-35 55 -41 148 -36 194 11 25 24 26 31 29 160 l4 135 -31 0 c-17 0 -31 -4 -31
-9 0 -6 -16 -3 -35 5 -42 17 -61 17 -102 -1z m117 -55 c43 -43 11 -120 -50
-120 -38 0 -70 32 -70 70 0 38 32 70 70 70 17 0 39 -9 50 -20z"/>
<path d="M606 1705 c-44 -30 -46 -30 -46 -5 0 15 -7 20 -25 20 l-25 0 0 -110
0 -110 30 0 30 0 0 60 c0 51 4 65 25 85 13 14 31 25 40 25 10 0 15 10 15 30 0
17 -2 30 -4 30 -2 0 -20 -11 -40 -25z"/>
<path d="M754 1714 c-80 -39 -87 -158 -12 -204 65 -39 153 -18 182 45 52 108
-60 213 -170 159z m105 -60 c12 -15 21 -37 21 -50 0 -57 -83 -87 -114 -42 -52
74 38 162 93 92z"/>
<path d="M1050 1712 c-86 -43 -88 -167 -4 -207 44 -21 93 -19 132 5 76 46 67
172 -13 206 -45 18 -73 18 -115 -4z m100 -52 c41 -41 15 -120 -39 -120 -32 0
-44 8 -60 37 -16 31 -14 47 10 77 25 31 61 34 89 6z"/>
<path d="M1342 1713 c-79 -39 -84 -157 -10 -203 64 -39 153 -16 183 47 51 108
-63 211 -173 156z m107 -59 c26 -34 27 -68 1 -94 -43 -43 -110 -14 -110 47 0
67 70 97 109 47z"/>
<path d="M2093 1711 c-26 -16 -32 -17 -37 -5 -3 8 -17 14 -31 14 l-25 0 0
-110 0 -110 30 0 30 0 0 65 c0 57 3 69 25 90 51 52 75 27 75 -77 l0 -78 30 0
30 0 0 93 c0 98 -3 108 -37 126 -31 16 -53 14 -90 -8z"/>
<path d="M2353 1715 c-65 -28 -85 -130 -35 -185 34 -39 98 -51 136 -26 33 21
36 20 36 -7 0 -53 -87 -81 -129 -43 -16 15 -19 15 -37 -5 -18 -20 -18 -21 1
-35 55 -41 148 -36 194 11 25 24 26 31 29 160 l4 135 -31 0 c-17 0 -31 -4 -31
-9 0 -6 -16 -3 -35 5 -42 17 -61 17 -102 -1z m115 -55 c45 -42 15 -120 -47
-120 -43 0 -74 30 -73 71 2 62 74 92 120 49z"/>
<path d="M2683 1715 c-18 -8 -42 -29 -53 -47 -54 -89 12 -187 118 -175 56 6
69 19 49 47 -9 13 -17 17 -22 11 -9 -15 -58 -14 -80 3 -17 12 -11 16 68 42 48
15 87 32 87 37 0 22 -34 68 -60 82 -36 18 -65 19 -107 0z m85 -47 c19 -19 15
-25 -35 -42 -58 -20 -63 -20 -63 1 0 42 68 71 98 41z"/>
<path d="M3007 1706 c-33 -23 -35 -23 -40 -5 -3 13 -14 19 -31 19 l-26 0 0
-110 0 -110 30 0 30 0 0 60 c0 51 4 65 25 85 13 14 31 25 38 25 15 0 27 20 27
46 0 20 -12 18 -53 -10z"/>
<path d="M1579 1683 c10 -21 39 -73 64 -116 l45 -78 45 83 c24 46 52 98 61
116 l17 32 -31 0 c-28 0 -34 -6 -58 -60 -15 -32 -30 -59 -33 -60 -3 0 -18 27
-34 60 -27 56 -31 60 -62 60 l-33 0 19 -37z"/>
<path d="M1860 1610 l0 -110 30 0 30 0 0 110 0 110 -30 0 -30 0 0 -110z"/>
</g>
</svg>
